<svg width="30" height="30" viewBox="0 0 30 30" fill="none" xmlns="http://www.w3.org/2000/svg">
<path d="M5.07634 25.2705L5.81107 24.2592L5.81107 24.2592L5.07634 25.2705ZM3.69364 23.8878L2.68237 24.6225L2.68237 24.6225L3.69364 23.8878ZM22.4237 25.2705L21.6889 24.2592L21.6889 24.2592L22.4237 25.2705ZM23.8064 23.8878L22.7951 23.1531L22.7951 23.1531L23.8064 23.8878ZM3.69364 6.54048L2.68237 5.80575L2.68237 5.80575L3.69364 6.54048ZM5.07634 5.15778L5.81107 6.16905L5.81107 6.16905L5.07634 5.15778ZM11.265 5.22306C11.9553 5.21478 12.5082 4.64847 12.4999 3.95816C12.4916 3.26786 11.9253 2.71496 11.235 2.72324L11.265 5.22306ZM26.2409 17.7291C26.2492 17.0388 25.6963 16.4725 25.006 16.4642C24.3157 16.456 23.7494 17.0089 23.7411 17.6992L26.2409 17.7291ZM14.7469 20.2197L14.6089 18.9773L14.7469 20.2197ZM9.59722 19.8479L8.71333 20.7317L8.71333 20.7317L9.59722 19.8479ZM9.22537 14.6981L10.4677 14.8362L9.22537 14.6981ZM10.6593 11.7148L9.77537 10.8309L9.77537 10.8309L10.6593 11.7148ZM9.55367 13.0196L8.42704 12.4782L8.42704 12.4782L9.55367 13.0196ZM17.7303 18.7858L18.6142 19.6697L18.6142 19.6697L17.7303 18.7858ZM16.4254 19.8914L16.9669 21.018L16.9669 21.018L16.4254 19.8914ZM13.75 25.2141C11.3786 25.2141 9.70041 25.2124 8.40622 25.0722C7.13542 24.9345 6.38393 24.6754 5.81107 24.2592L4.34161 26.2818C5.41167 27.0592 6.65342 27.3969 8.13693 27.5577C9.59705 27.7159 11.4343 27.7141 13.75 27.7141V25.2141ZM1.25 15.2141C1.25 17.5299 1.24828 19.3671 1.40648 20.8272C1.56721 22.3107 1.90493 23.5525 2.68237 24.6225L4.70491 23.1531C4.28871 22.5802 4.02962 21.8287 3.89193 20.5579C3.75172 19.2637 3.75 17.5856 3.75 15.2141H1.25ZM5.81107 24.2592C5.3866 23.9508 5.01331 23.5775 4.70491 23.1531L2.68237 24.6225C3.14497 25.2592 3.7049 25.8192 4.34161 26.2818L5.81107 24.2592ZM13.75 27.7141C16.0657 27.7141 17.9029 27.7159 19.3631 27.5577C20.8466 27.3969 22.0883 27.0592 23.1584 26.2818L21.6889 24.2592C21.1161 24.6754 20.3646 24.9345 19.0938 25.0722C17.7996 25.2124 16.1214 25.2141 13.75 25.2141V27.7141ZM22.7951 23.1531C22.4867 23.5775 22.1134 23.9508 21.6889 24.2592L23.1584 26.2818C23.7951 25.8192 24.355 25.2592 24.8176 24.6225L22.7951 23.1531ZM3.75 15.2141C3.75 12.8427 3.75172 11.1646 3.89193 9.87036C4.02962 8.59956 4.28871 7.84807 4.70491 7.27521L2.68237 5.80575C1.90493 6.8758 1.56721 8.11756 1.40648 9.60107C1.24828 11.0612 1.25 12.8984 1.25 15.2141H3.75ZM4.34161 4.14651C3.7049 4.60911 3.14497 5.16904 2.68237 5.80575L4.70491 7.27521C5.01331 6.85074 5.3866 6.47745 5.81107 6.16905L4.34161 4.14651ZM11.235 2.72324C8.21735 2.75941 6.03256 2.91796 4.34161 4.14651L5.81107 6.16905C6.76144 5.47857 8.1235 5.26071 11.265 5.22306L11.235 2.72324ZM23.7411 17.6992C23.7034 20.8406 23.4856 22.2027 22.7951 23.1531L24.8176 24.6225C26.0462 22.9316 26.2047 20.7468 26.2409 17.7291L23.7411 17.6992ZM23.5612 11.1872L16.8464 17.9019L18.6142 19.6697L25.329 12.9549L23.5612 11.1872ZM11.5431 12.5986L18.2579 5.88388L16.4901 4.11612L9.77537 10.8309L11.5431 12.5986ZM14.6089 18.9773C13.1367 19.1409 12.1679 19.2455 11.456 19.2225C10.7777 19.2006 10.5833 19.0662 10.4811 18.964L8.71333 20.7317C9.46072 21.4791 10.4079 21.69 11.3753 21.7212C12.3092 21.7513 13.4904 21.617 14.885 21.4621L14.6089 18.9773ZM7.98302 14.5601C7.82807 15.9546 7.69373 17.1358 7.72389 18.0698C7.75513 19.0372 7.96595 19.9844 8.71333 20.7317L10.4811 18.964C10.3789 18.8617 10.2445 18.6674 10.2226 17.9891C10.1996 17.2772 10.3041 16.3084 10.4677 14.8362L7.98302 14.5601ZM9.77537 10.8309C9.22153 11.3847 8.72499 11.8582 8.42704 12.4782L10.6803 13.5611C10.7512 13.4136 10.8688 13.273 11.5431 12.5986L9.77537 10.8309ZM10.4677 14.8362C10.573 13.8883 10.6094 13.7087 10.6803 13.5611L8.42704 12.4782C8.12909 13.0981 8.06951 13.7816 7.98302 14.5601L10.4677 14.8362ZM16.8464 17.9019C16.1721 18.5763 16.0315 18.6939 15.8839 18.7648L16.9669 21.018C17.5868 20.7201 18.0604 20.2235 18.6142 19.6697L16.8464 17.9019ZM14.885 21.4621C15.6634 21.3756 16.347 21.316 16.9669 21.018L15.8839 18.7648C15.7364 18.8357 15.5568 18.872 14.6089 18.9773L14.885 21.4621ZM23.5612 5.88388C24.4195 6.7422 24.9725 7.2989 25.3263 7.76267C25.6581 8.19758 25.6951 8.40096 25.6951 8.53553H28.1951C28.1951 7.63457 27.8154 6.90351 27.3139 6.24622C26.8344 5.61776 26.1373 4.92446 25.329 4.11612L23.5612 5.88388ZM25.329 12.9549C26.1373 12.1466 26.8344 11.4533 27.3139 10.8249C27.8154 10.1676 28.1951 9.4365 28.1951 8.53553H25.6951C25.6951 8.6701 25.6581 8.87348 25.3263 9.3084C24.9725 9.77216 24.4195 10.3289 23.5612 11.1872L25.329 12.9549ZM25.329 4.11612C24.5206 3.30777 23.8273 2.61072 23.1989 2.13122C22.5416 1.62972 21.8105 1.25 20.9095 1.25V3.75C21.0441 3.75 21.2475 3.78695 21.6824 4.11878C22.1462 4.47262 22.7029 5.02556 23.5612 5.88388L25.329 4.11612ZM18.2579 5.88388C19.1162 5.02556 19.6729 4.47262 20.1367 4.11878C20.5716 3.78695 20.775 3.75 20.9095 3.75V1.25C20.0086 1.25 19.2775 1.62972 18.6202 2.13122C17.9918 2.61072 17.2985 3.30777 16.4901 4.11612L18.2579 5.88388ZM25.329 11.1872L18.2579 4.11612L16.4901 5.88388L23.5612 12.9549L25.329 11.1872Z" fill="#00A8A8"/>
</svg>
